Coordinates
version=1
nRows=4
nColumns=63
inDegrees=yes

Units are S.I. units (second, meters, Newtons, ...)
If the header above contains a line with 'inDegrees', this indicates whether rotational values are in degrees (yes) or radians (no).

endheader
time	pelvis_tilt	pelvis_list	pelvis_rotation	pelvis_tx	pelvis_ty	pelvis_tz	hip_flexion_r	hip_adduction_r	hip_rotation_r	knee_angle_r	knee_angle_r_beta	ankle_angle_r	subtalar_angle_r	mtp_angle_r	hip_flexion_l	hip_adduction_l	hip_rotation_l	knee_angle_l	knee_angle_l_beta	ankle_angle_l	subtalar_angle_l	mtp_angle_l	L5_S1_Flex_Ext	L5_S1_Lat_Bending	L5_S1_axial_rotation	L4_L5_Flex_Ext	L4_L5_Lat_Bending	L4_L5_axial_rotation	L3_L4_Flex_Ext	L3_L4_Lat_Bending	L3_L4_axial_rotation	L2_L3_Flex_Ext	L2_L3_Lat_Bending	L2_L3_axial_rotation	L1_L2_Flex_Ext	L1_L2_Lat_Bending	L1_L2_axial_rotation	L1_T12_Flex_Ext	L1_T12_Lat_Bending	L1_T12_axial_rotation	Abs_r3	Abs_r2	Abs_r1	Abs_t1	Abs_t2	neck_flexion	neck_bending	neck_rotation	arm_flex_r	arm_add_r	arm_rot_r	elbow_flex_r	pro_sup_r	wrist_flex_r	wrist_dev_r	arm_flex_l	arm_add_l	arm_rot_l	elbow_flex_l	pro_sup_l	wrist_flex_l	wrist_dev_l
      4.55000000	      0.04925532	     -1.44110457	    104.44526449	      0.23130988	      0.68334562	      0.97487261	      5.46401052	     -2.65893352	    -12.74908077	     14.16352011	      0.24720006	     33.56769790	      5.85165991	      0.00000000	      4.94024547	      3.18303528	     21.65720514	      6.51345043	      0.11368116	     28.76047886	    -15.25101393	      0.00000000	     -0.00635831	      0.67067682	     -0.07939702	     -0.01180801	      0.89200017	     -0.08435933	     -0.01044606	      1.63068362	     -0.08435933	     -0.00726691	      1.63068362	     -0.06947239	     -0.00590432	      1.36764417	     -0.06451008	     -0.00363314	      1.03887839	     -0.05954776	     -0.04541674	      7.58683030	     -0.44158239	      0.00000000	      0.00000000	     27.30575870	     -6.40809672	      9.94012789	      6.02995048	    -15.94763618	     64.95315862	     21.60411591	     83.41932952	    -10.15654783	      3.65602164	      9.98600412	     -5.32483763	     69.98032057	     23.12236637	     53.65407989	     -5.60920449	     -6.05223141
      4.56666667	      0.06339201	     -1.60280612	    104.12645315	      0.23186499	      0.68366027	      0.97325684	      5.50287029	     -2.61545029	    -12.66135279	     13.99240438	      0.24421353	     33.46021533	      6.00123474	      0.00000000	      5.01802987	      3.15535446	     21.38779787	      6.51963981	      0.11378918	     28.68090297	    -15.40973929	      0.00000000	      0.04708330	      0.66193508	      0.09072331	      0.08743840	      0.88037366	      0.09639352	      0.07735316	      1.60942895	      0.09639352	      0.05381151	      1.60942895	      0.07938290	      0.04372156	      1.34981801	      0.07371269	      0.02690340	      1.02533744	      0.06804248	      0.33631132	      7.48794201	      0.50457583	      0.00000000	      0.00000000	     27.57702213	     -5.86030545	     12.02184250	      5.36154474	    -15.91045333	     63.74002028	     21.69454157	     83.75233401	    -10.57111314	      3.58396837	     11.26508270	     -4.88047479	     78.21336040	     21.70820577	     47.41502896	     -5.57656502	     -7.41170862
      4.58333333	      0.07183998	     -1.76814037	    103.50329078	      0.23298910	      0.68393840	      0.97153913	      5.60299111	     -2.47204789	    -11.62215459	     13.85291801	      0.24177903	     33.20484909	      5.24224306	      0.00000000	      5.05168238	      3.08563487	     20.92574566	      6.42232127	      0.11209065	     28.61826425	    -15.78031516	      0.00000000	      0.09303420	      0.64955151	      0.35262906	      0.17277381	      0.86390351	      0.37466838	      0.15284588	      1.57931955	      0.37466838	      0.10632878	      1.57931955	      0.30855043	      0.08639156	      1.32456545	      0.28651111	      0.05315974	      1.00615529	      0.26447179	      0.66453396	      7.34785663	      1.96121704	      0.00000000	      0.00000000	     27.74632203	     -5.12790077	     14.11880744	      4.67910893	    -15.85050184	     62.65205761	     21.73518863	     83.58132877	    -11.16717046	      3.37152224	     12.91695827	     -4.20506667	     89.72378639	     20.19684735	     37.82136252	     -5.20853595	     -9.38431564
      4.60000000	      0.12153081	     -1.90233129	    103.02555549	      0.23392563	      0.68418946	      0.97005331	      5.64587232	     -2.36377085	    -11.38196375	     13.70019990	      0.23911360	     33.02402618	      5.33800821	      0.00000000	      5.14311291	      2.99306222	     20.39419832	      6.46643900	      0.11286065	     28.75406263	    -15.92247099	      0.00000000	      0.12641464	      0.63957792	      0.60133966	      0.23476463	      0.85063863	      0.63892338	      0.20768661	      1.55506974	      0.63892338	      0.14447929	      1.55506974	      0.52617220	      0.11738863	      1.30422729	      0.48858847	      0.07223332	      0.99070619	      0.45100474	      0.90296713	      7.23503330	      3.34447076	      0.00000000	      0.00000000	     27.85274736	     -4.35600762	     16.09770483	      3.96695870	    -15.79073836	     61.07110127	     21.78842509	     83.93727447	    -11.57307370	      3.09163271	     14.13789334	     -3.44716359	     99.02100332	     19.09722121	     30.03604063	     -4.71689292	    -10.67751264
